<mxfile host="app.diagrams.net" modified="2023-05-05T07:28:13.341Z" agent="Mozilla/5.0 (Windows NT 10.0; Win64; x64) AppleWebKit/537.36 (KHTML, like Gecko) Chrome/112.0.0.0 Safari/537.36" etag="rcdqpfpIBCHYmHo4wF7x" version="21.2.7" type="github">
  <diagram name="Page-1" id="r4krvT9fruFya-sUZ_jw">
    <mxGraphModel dx="1050" dy="1641" grid="1" gridSize="10" guides="1" tooltips="1" connect="1" arrows="1" fold="1" page="1" pageScale="1" pageWidth="850" pageHeight="1100" math="0" shadow="0">
      <root>
        <mxCell id="0" />
        <mxCell id="1" parent="0" />
        <mxCell id="xCakJ-smmjvAOTlL40Cb-1" value="Passenger" style="swimlane;childLayout=stackLayout;horizontal=1;startSize=50;horizontalStack=0;rounded=1;fontSize=14;fontStyle=0;strokeWidth=2;resizeParent=0;resizeLast=1;shadow=0;dashed=0;align=center;arcSize=4;whiteSpace=wrap;html=1;fillColor=#d5e8d4;strokeColor=#82b366;" vertex="1" parent="1">
          <mxGeometry x="310" y="100" width="160" height="120" as="geometry" />
        </mxCell>
        <mxCell id="xCakJ-smmjvAOTlL40Cb-2" value="+first_name (string)&lt;br&gt;+last_name (string)" style="align=left;strokeColor=none;fillColor=none;spacingLeft=4;fontSize=12;verticalAlign=top;resizable=0;rotatable=0;part=1;html=1;" vertex="1" parent="xCakJ-smmjvAOTlL40Cb-1">
          <mxGeometry y="50" width="160" height="70" as="geometry" />
        </mxCell>
        <mxCell id="xCakJ-smmjvAOTlL40Cb-11" value="Flight" style="swimlane;childLayout=stackLayout;horizontal=1;startSize=50;horizontalStack=0;rounded=1;fontSize=14;fontStyle=0;strokeWidth=2;resizeParent=0;resizeLast=1;shadow=0;dashed=0;align=center;arcSize=4;whiteSpace=wrap;html=1;fillColor=#d5e8d4;strokeColor=#82b366;" vertex="1" parent="1">
          <mxGeometry x="610" y="100" width="170" height="170" as="geometry" />
        </mxCell>
        <mxCell id="xCakJ-smmjvAOTlL40Cb-12" value="+Number&amp;nbsp; (string)&lt;br&gt;+departureDateTime&amp;nbsp; (dateTime)&amp;nbsp;&lt;br&gt;+ArrivalDateTime (date Time)&lt;br&gt;+DurationMinutes (integer)&lt;br&gt;+DistanceInMiles (integer)&lt;br&gt;+DepartureAirportId (integer)&lt;span style=&quot;white-space: pre;&quot;&gt;	&lt;/span&gt;&lt;br&gt;+ArrivalAirportId (integer)" style="align=left;strokeColor=none;fillColor=none;spacingLeft=4;fontSize=12;verticalAlign=top;resizable=0;rotatable=0;part=1;html=1;" vertex="1" parent="xCakJ-smmjvAOTlL40Cb-11">
          <mxGeometry y="50" width="170" height="120" as="geometry" />
        </mxCell>
        <mxCell id="xCakJ-smmjvAOTlL40Cb-26" value="Airport" style="swimlane;childLayout=stackLayout;horizontal=1;startSize=50;horizontalStack=0;rounded=1;fontSize=14;fontStyle=0;strokeWidth=2;resizeParent=0;resizeLast=1;shadow=0;dashed=0;align=center;arcSize=4;whiteSpace=wrap;html=1;fillColor=#d5e8d4;strokeColor=#82b366;" vertex="1" parent="1">
          <mxGeometry x="370" y="280" width="160" height="120" as="geometry" />
        </mxCell>
        <mxCell id="xCakJ-smmjvAOTlL40Cb-27" value="IATACode (string)&lt;br&gt;Name (string)&lt;br&gt;City&amp;nbsp; (string)&lt;br&gt;State (string)" style="align=left;strokeColor=none;fillColor=none;spacingLeft=4;fontSize=12;verticalAlign=top;resizable=0;rotatable=0;part=1;html=1;" vertex="1" parent="xCakJ-smmjvAOTlL40Cb-26">
          <mxGeometry y="50" width="160" height="70" as="geometry" />
        </mxCell>
        <mxCell id="xCakJ-smmjvAOTlL40Cb-28" value="" style="edgeStyle=entityRelationEdgeStyle;fontSize=12;html=1;endArrow=ERmany;startArrow=ERmany;rounded=0;exitX=1.012;exitY=0.199;exitDx=0;exitDy=0;exitPerimeter=0;entryX=0;entryY=0.4;entryDx=0;entryDy=0;entryPerimeter=0;" edge="1" parent="1" source="xCakJ-smmjvAOTlL40Cb-27" target="xCakJ-smmjvAOTlL40Cb-12">
          <mxGeometry width="100" height="100" relative="1" as="geometry">
            <mxPoint x="550" y="380" as="sourcePoint" />
            <mxPoint x="650" y="280" as="targetPoint" />
          </mxGeometry>
        </mxCell>
        <mxCell id="xCakJ-smmjvAOTlL40Cb-29" value="Departs/Arrives at" style="edgeLabel;html=1;align=center;verticalAlign=middle;resizable=0;points=[];" vertex="1" connectable="0" parent="xCakJ-smmjvAOTlL40Cb-28">
          <mxGeometry x="-0.2348" y="1" relative="1" as="geometry">
            <mxPoint as="offset" />
          </mxGeometry>
        </mxCell>
        <mxCell id="xCakJ-smmjvAOTlL40Cb-30" value="Ticket" style="swimlane;childLayout=stackLayout;horizontal=1;startSize=50;horizontalStack=0;rounded=1;fontSize=14;fontStyle=0;strokeWidth=2;resizeParent=0;resizeLast=1;shadow=0;dashed=0;align=center;arcSize=4;whiteSpace=wrap;html=1;fillColor=#d5e8d4;strokeColor=#82b366;" vertex="1" parent="1">
          <mxGeometry x="480" y="-80" width="160" height="120" as="geometry" />
        </mxCell>
        <mxCell id="xCakJ-smmjvAOTlL40Cb-31" value="TicketNumber (string)&lt;br&gt;Price (float)&lt;br&gt;ConfirmationNumber (string)" style="align=left;strokeColor=none;fillColor=none;spacingLeft=4;fontSize=12;verticalAlign=top;resizable=0;rotatable=0;part=1;html=1;" vertex="1" parent="xCakJ-smmjvAOTlL40Cb-30">
          <mxGeometry y="50" width="160" height="70" as="geometry" />
        </mxCell>
        <mxCell id="xCakJ-smmjvAOTlL40Cb-32" value="" style="edgeStyle=entityRelationEdgeStyle;fontSize=12;html=1;endArrow=ERmany;startArrow=ERone;rounded=0;entryX=-0.022;entryY=0.315;entryDx=0;entryDy=0;entryPerimeter=0;endFill=0;startFill=0;" edge="1" parent="1" source="xCakJ-smmjvAOTlL40Cb-1" target="xCakJ-smmjvAOTlL40Cb-31">
          <mxGeometry width="100" height="100" relative="1" as="geometry">
            <mxPoint x="500" y="100" as="sourcePoint" />
            <mxPoint x="600" as="targetPoint" />
          </mxGeometry>
        </mxCell>
        <mxCell id="xCakJ-smmjvAOTlL40Cb-33" value="purchases" style="edgeLabel;html=1;align=center;verticalAlign=middle;resizable=0;points=[];" vertex="1" connectable="0" parent="xCakJ-smmjvAOTlL40Cb-32">
          <mxGeometry x="-0.3542" y="1" relative="1" as="geometry">
            <mxPoint as="offset" />
          </mxGeometry>
        </mxCell>
        <mxCell id="xCakJ-smmjvAOTlL40Cb-34" value="" style="edgeStyle=entityRelationEdgeStyle;fontSize=12;html=1;endArrow=ERmany;endFill=0;startArrow=ERone;rounded=0;entryX=0.954;entryY=-0.005;entryDx=0;entryDy=0;entryPerimeter=0;startFill=0;" edge="1" parent="1" target="xCakJ-smmjvAOTlL40Cb-31">
          <mxGeometry width="100" height="100" relative="1" as="geometry">
            <mxPoint x="690" y="100" as="sourcePoint" />
            <mxPoint x="780" y="-10" as="targetPoint" />
          </mxGeometry>
        </mxCell>
        <mxCell id="xCakJ-smmjvAOTlL40Cb-35" value="issued for" style="edgeLabel;html=1;align=center;verticalAlign=middle;resizable=0;points=[];" vertex="1" connectable="0" parent="xCakJ-smmjvAOTlL40Cb-34">
          <mxGeometry x="-0.085" y="-2" relative="1" as="geometry">
            <mxPoint as="offset" />
          </mxGeometry>
        </mxCell>
        <mxCell id="xCakJ-smmjvAOTlL40Cb-36" value="Airline" style="swimlane;childLayout=stackLayout;horizontal=1;startSize=50;horizontalStack=0;rounded=1;fontSize=14;fontStyle=0;strokeWidth=2;resizeParent=0;resizeLast=1;shadow=0;dashed=0;align=center;arcSize=4;whiteSpace=wrap;html=1;fillColor=#d5e8d4;strokeColor=#82b366;" vertex="1" parent="1">
          <mxGeometry x="600" y="330" width="160" height="120" as="geometry" />
        </mxCell>
        <mxCell id="xCakJ-smmjvAOTlL40Cb-37" value="Name (string)" style="align=left;strokeColor=none;fillColor=none;spacingLeft=4;fontSize=12;verticalAlign=top;resizable=0;rotatable=0;part=1;html=1;" vertex="1" parent="xCakJ-smmjvAOTlL40Cb-36">
          <mxGeometry y="50" width="160" height="70" as="geometry" />
        </mxCell>
        <mxCell id="xCakJ-smmjvAOTlL40Cb-38" value="" style="edgeStyle=entityRelationEdgeStyle;fontSize=12;html=1;endArrow=ERmany;rounded=0;" edge="1" parent="1" source="xCakJ-smmjvAOTlL40Cb-36" target="xCakJ-smmjvAOTlL40Cb-12">
          <mxGeometry width="100" height="100" relative="1" as="geometry">
            <mxPoint x="680" y="330" as="sourcePoint" />
            <mxPoint x="780" y="230" as="targetPoint" />
          </mxGeometry>
        </mxCell>
        <mxCell id="xCakJ-smmjvAOTlL40Cb-39" value="FlightClass" style="swimlane;childLayout=stackLayout;horizontal=1;startSize=50;horizontalStack=0;rounded=1;fontSize=14;fontStyle=0;strokeWidth=2;resizeParent=0;resizeLast=1;shadow=0;dashed=0;align=center;arcSize=4;whiteSpace=wrap;html=1;fillColor=#d5e8d4;strokeColor=#82b366;" vertex="1" parent="1">
          <mxGeometry x="230" y="-90" width="160" height="120" as="geometry" />
        </mxCell>
        <mxCell id="xCakJ-smmjvAOTlL40Cb-40" value="Name&amp;nbsp;" style="align=left;strokeColor=none;fillColor=none;spacingLeft=4;fontSize=12;verticalAlign=top;resizable=0;rotatable=0;part=1;html=1;" vertex="1" parent="xCakJ-smmjvAOTlL40Cb-39">
          <mxGeometry y="50" width="160" height="70" as="geometry" />
        </mxCell>
        <mxCell id="xCakJ-smmjvAOTlL40Cb-41" value="" style="edgeStyle=entityRelationEdgeStyle;fontSize=12;html=1;endArrow=ERoneToMany;startArrow=ERzeroToOne;rounded=0;exitX=1.01;exitY=0.357;exitDx=0;exitDy=0;exitPerimeter=0;entryX=-0.017;entryY=0.12;entryDx=0;entryDy=0;entryPerimeter=0;" edge="1" parent="1" source="xCakJ-smmjvAOTlL40Cb-40" target="xCakJ-smmjvAOTlL40Cb-31">
          <mxGeometry width="100" height="100" relative="1" as="geometry">
            <mxPoint x="430" y="60" as="sourcePoint" />
            <mxPoint x="530" y="-40" as="targetPoint" />
          </mxGeometry>
        </mxCell>
      </root>
    </mxGraphModel>
  </diagram>
</mxfile>
